<?xml version="1.0" encoding="UTF-8"?>
<!DOCTYPE svg PUBLIC "-//W3C//DTD SVG 1.1//EN" "http://www.w3.org/Graphics/SVG/1.1/DTD/svg11.dtd">
<!-- Creator: CorelDRAW -->
<svg xmlns="http://www.w3.org/2000/svg" xml:space="preserve" width="51.724mm" height="78.5634mm" version="1.1" style="shape-rendering:geometricPrecision; text-rendering:geometricPrecision; image-rendering:optimizeQuality; fill-rule:evenodd; clip-rule:evenodd"
viewBox="0 0 5172.4 7856.34"
 xmlns:xlink="http://www.w3.org/1999/xlink"
 xmlns:xodm="http://www.corel.com/coreldraw/odm/2003">
 <defs>
  <style type="text/css">
   <![CDATA[
    .fil2 {fill:none}
    .fil0 {fill:#080207}
    .fil1 {fill:#CFCCBF}
    .fil3 {fill:#FEFEFE;fill-rule:nonzero}
   ]]>
  </style>
 </defs>
 <g id="Camada_x0020_1">
  <metadata id="CorelCorpID_0Corel-Layer"/>
  <g id="_2525730416720">
   <path class="fil0" d="M164.34 48.96l4226.91 0c426.27,0 775.02,348.76 775.02,775.02l0 6105.74c0,426.27 -348.75,775.02 -775.02,775.02l-4226.91 0 0 -7655.78z"/>
   <polygon class="fil0" points="164.32,48.96 -6.14,159.2 115.93,159.2 165.94,159.04 164.32,99.82 "/>
   <path class="fil1" d="M165.4 75.5l-126.26 87.7 126.26 -4.16 0 7617.4 4151.57 0c418.67,0 761.22,-344 761.22,-764.46l0 -6172.02c0,-420.46 -342.55,-764.46 -761.22,-764.46l-4151.57 0z"/>
   <path class="fil0" d="M-6.14 159.2l4169.27 0c420.45,0 764.45,344 764.45,764.44l0 6172.06c0,420.44 -344,764.44 -764.45,764.44l-4169.27 0 0 -7700.94z"/>
   <line class="fil2" x1="234.15" y1="3.8" x2="-6.14" y2= "159.2" />
   <path class="fil3" d="M887.05 2259.32l93.77 -970.01 329.33 0 92.07 970.01 -183.58 0 -13.94 -156.53 -116.93 0 -12.05 156.53 -188.67 0zm214.66 -311.36l88.12 0 -42.37 -493.28 -8.85 0 -36.9 493.28z"/>
   <path id="_1" class="fil3" d="M1662.08 2268.16c-138.59,0 -207.88,-99.14 -207.88,-297.62l0 -418.41c0,-181.17 79.27,-271.66 238.2,-271.66 65.53,0 115.61,13.17 150.63,39.32 34.83,26.34 58.94,64.72 72.3,114.95 13.19,50.42 19.78,111.75 19.78,184.18l-189.81 0 0 -85.98c0,-21.07 -2.82,-38.56 -8.47,-52.67 -5.65,-14.11 -17.51,-21.26 -35.58,-21.26 -22.41,0 -37.29,7.52 -44.44,22.57 -7.16,15.05 -10.74,31.61 -10.74,49.67l0 470.14c0,26.15 3.39,47.22 10.17,63.59 6.78,16.37 20.14,24.65 40.11,24.65 20.52,0 34.27,-8.28 41.05,-24.65 6.77,-16.37 10.17,-37.81 10.17,-64.72l0 -138.27 -51.79 0 0 -167.63 237.07 0 0 564.96 -77.77 0 -32.95 -81.65c-33.9,60.39 -87.18,90.49 -160.05,90.49z"/>
   <polygon id="_2" class="fil3" points="2009.68,2259.32 2009.68,1289.31 2397.95,1289.31 2397.95,1476.69 2207.01,1476.69 2207.01,1665.76 2390.23,1665.76 2390.23,1848.06 2207.01,1848.06 2207.01,2070.25 2410.56,2070.25 2410.56,2259.32 "/>
   <polygon id="_3" class="fil3" points="2474.78,2259.32 2474.78,1289.31 2674.37,1289.31 2763.81,1753.81 2763.81,1289.31 2951.36,1289.31 2951.36,2259.32 2761.56,2259.32 2664.39,1774.32 2664.39,2259.32 "/>
   <path id="_4" class="fil3" d="M3037.41 2259.32l0 -970.01 267.01 0c69.86,0 122.39,19.38 157.61,58.14 35.4,38.75 53.09,95.38 53.09,170.07l0 454.15c0,91.8 -16.19,162.73 -48.39,212.77 -32.2,49.86 -88.5,74.88 -169.09,74.88l-260.23 0zm195.26 -171.39l33.52 0c35.78,0 53.67,-17.31 53.67,-51.92l0 -500.43c0,-32.36 -4.33,-53.06 -12.99,-62.46 -8.67,-9.41 -26.17,-14.11 -52.73,-14.11l-21.47 0 0 628.92z"/>
   <path id="_5" class="fil3" d="M3568.04 2259.32l93.77 -970.01 329.33 0 92.07 970.01 -183.58 0 -13.94 -156.53 -116.93 0 -12.05 156.53 -188.67 0zm214.66 -311.36l88.12 0 -42.37 -493.28 -8.85 0 -36.9 493.28z"/>
  </g>
 </g>
</svg>
