<svg xmlns="http://www.w3.org/2000/svg" style="display:none">
  <symbol id='art-icon' viewBox="0 0 5000 5000">
 <defs>
  <style type="text/css">
   <![CDATA[
    .fil2 {fill:none}
    .fil1 {fill:#FEFEFE}
    .fil0 {fill:black}
   ]]>
  </style>
   <clipPath id="id0">
    <path d="M2493.87 6.13c1380.71,0 2500,1119.29 2500,2500 0,1380.71 -1119.29,2500 -2500,2500 -1380.71,0 -2500,-1119.29 -2500,-2500 0,-1380.71 1119.29,-2500 2500,-2500z"/>
   </clipPath>
 </defs>
 <g id="Camada_x0020_1">
  <metadata id="CorelCorpID_0Corel-Layer"/>
  <path class="fil0" d="M2493.87 6.13c1380.71,0 2500,1119.29 2500,2500 0,1380.71 -1119.29,2500 -2500,2500 -1380.71,0 -2500,-1119.29 -2500,-2500 0,-1380.71 1119.29,-2500 2500,-2500z"/>
  <g style="clip-path:url(#id0)">
   <g id="_2526258659648">
    <g>
     <path id="_1" class="fil1" d="M1773.43 3225.47c9.65,2.63 21.29,10.56 30.75,15.51 2.67,1.4 2.28,1.4 4.5,2.67l82.1 54.09c7.65,6.27 15.61,11.93 22.48,18.77 2.43,2.41 4.36,4.26 6.7,6.68l5.98 7.35c6.21,8.15 10.32,15.99 14.53,25.53 3.21,7.28 4.01,13.81 5.14,22.28 1.58,11.86 4.22,23.68 4.11,35.89 -0.02,2.41 -0.14,4.87 0.12,7.27 0.26,2.49 0.7,3.15 0.79,6.2 0.54,18.12 1.72,33.44 1.76,52.78 4.39,-1.63 7.74,-4.13 11.99,-6.54l45.64 -26.93c14.86,-9.86 30.36,-18.48 45.44,-27.89 1.81,-1.13 3.28,-1.91 5.56,-3.43l28.46 -18.07c1.73,-1.17 3.11,-1.99 5.49,-3.42 16.96,-10.16 33.28,-21.48 49.81,-32.54l10.55 -7.35c7.41,-4.91 14.3,-9.53 22.02,-14.67l128.75 -91.42c30.73,-23.2 63.11,-46.03 93,-70.8l10.53 -8.21c7.14,-5.35 13.68,-10.67 20.62,-16.11l70.69 -57.26c10.98,-8.68 40.6,-32.82 50.31,-41.96l19.65 -16.96c14.5,-12.85 30.31,-24.57 44.32,-38.07l43.35 -38.04c8.14,-6.85 15.52,-15.01 24.01,-21.56 2.06,-1.59 3.25,-2.93 5.12,-4.84l9.39 -8.51c7.05,-7.19 21.59,-18.77 29.1,-26.37 12.15,-12.31 25.81,-23.12 38.02,-35.35l93.96 -89.48c6.33,-6.33 12.04,-11.98 18.34,-18.35l18.79 -17.89c10.34,-10.34 64.89,-63.44 72.92,-72.99 10.74,-12.76 26.56,-24.77 36.1,-37.36 6.1,-8.06 15.41,-15.6 22.54,-22.96l13.4 -14.34c12.26,-12.26 23.41,-25.34 35.8,-37.57 3.45,-3.42 5.06,-6.02 8.49,-9.4 3.39,-3.35 6.27,-5.75 9.25,-9.69 5.88,-7.77 18.68,-19.28 26.19,-28.37l17.82 -18.75c3.41,-3.39 5.31,-6.28 8.94,-9.85l21.91 -23.78c14.2,-16.88 39.94,-42.69 52.06,-58.08 1.51,-1.91 2.69,-2.73 4.34,-4.49l33.97 -38.49c9.39,-9.16 16.78,-20.38 25.96,-29.51 2.26,-2.26 2.24,-2.69 4.12,-4.96l86.66 -100.32c1.18,-1.46 0.84,-1.28 1.93,-2.58l12.87 -14.8c1.65,-1.94 2.22,-2.85 4.03,-4.9l8.51 -10.27c13.97,-14.54 43,-52.96 58.17,-69.81 8.77,-9.73 16.28,-20.67 25.06,-30.42 10.92,-12.13 30.41,-36.84 40.55,-49.91l89.58 -112.61c57.5,-71.55 118.88,-155.01 174.13,-228.59l73.5 -100.09c1.67,-2.2 2.62,-3.72 4.1,-5.77 16.59,-23.07 34.21,-45.63 49.75,-69.29 1.43,-2.19 2.19,-3.19 3.68,-5.2 1.47,-1.98 2.2,-3.26 3.7,-5.26l79.25 -113.14c5.39,-7.26 10.03,-14.2 15.01,-21.72 2.41,-3.64 5.06,-7.11 7.35,-10.56 2.56,-3.86 4.75,-7.46 7.55,-11.18 14.85,-19.72 60.06,-88.9 73.87,-109.62 5.05,-7.57 9.55,-14.32 14.68,-22.01l39.73 -60.48c0.5,-0.76 1.22,-1.8 1.78,-2.72l30.78 -47.95c4.47,-6.73 10.69,-15.51 13.39,-23.56 3.57,-10.66 3.91,-20.57 1.14,-31.75l-12.57 -22.7c-2.2,-2.3 -7.13,-6.28 -9.99,-8.09 -12.59,-7.97 -30.67,-11.12 -45.44,-6.11 -8.87,3.01 -15.87,8.64 -23.39,13.08l-154.71 101.16c-3.57,2.38 -7.16,4.77 -10.74,7.15l-119.73 81.61c-18.36,12.22 -35.49,25.31 -53.87,37.4l-32.57 22.92c-2.18,1.43 -3.19,2.18 -5.19,3.68l-37.76 26.74c-2.19,1.43 -3.19,2.19 -5.2,3.68 -1.98,1.48 -3.25,2.19 -5.27,3.69l-47.86 34.5c-2.18,1.49 -3.75,2.66 -5.68,4.12 -6.78,5.12 -14.18,10.49 -21.36,15.39 -1.78,1.22 -3.68,2.71 -5.1,3.78l-214.61 160.31c-3.98,3.05 -6.8,5.09 -10.61,8.15 -23.76,19.12 -48.14,37.03 -72.25,55.75l-51.5 40.66c-7.08,5.61 -13.24,10.61 -20.46,16.23l-210.91 172.86c-12.99,11.7 -27.3,21.54 -39.82,33.56l-49.67 42.52c-2.86,2.66 -6.59,6.08 -9.57,8.39l-10.13 8.6c-9.34,8.74 -20.12,16.73 -29.07,25.49l-67.82 60.25c-7.47,5.66 -17.03,15.04 -23.85,21.65 -2.16,2.1 -2.91,2.23 -4.99,4.05 -1.69,1.49 -2.71,2.86 -4.42,4.45 -2.32,2.17 -3.16,2.27 -5.41,4.45l-76.52 70.26c-7.79,7.2 -14.76,15.12 -22.83,21.91l-23.65 21.93c-3.46,3.45 -6.01,6.3 -9.76,9.17 -6.71,5.12 -29.24,28.61 -37.21,36.03l-30.38 28.75c-11.78,9.38 -38.51,39.89 -52.42,52.23 -10.72,9.51 -23.34,21.13 -32.6,31.71 -16.5,18.84 -41.43,39.85 -54.22,55.84 -6.67,8.35 -15.38,15.24 -22.79,22.91l-8.94 9.88c-3.2,3.2 -5.73,5.76 -8.95,8.95l-80.1 85.43c-7.42,7.45 -18.34,21.24 -25.93,28.66 -11.87,11.61 -23.43,26.04 -34.89,38.43 -1.96,2.11 -1.96,2.78 -4.02,4.98l-55.59 63.31c-7.88,10.16 -17.08,19.43 -25.31,29.27l-16.75 19.95c-2.88,3.68 -5.53,6.29 -8.56,10.21 -5.57,7.21 -11.05,13.15 -16.74,19.96l-33.11 40.27c-0.99,1.17 -0.9,1.23 -1.95,2.54l-58.65 73.77c-28.29,36.08 -55.28,72.94 -82.83,109.53l-26.64 36.84c-1.76,2.59 -2.59,3.48 -4.13,5.72l-45.07 64.98c-19.92,29.74 -43.84,63.47 -61.96,93.71 -1.36,2.28 -2.1,3.21 -3.57,5.41 -1.5,2.27 -2.04,3.43 -3.38,5.56l-10.74 17c-5.27,8.31 -33.29,51.84 -34.72,57.63z"/>
     <path class="fil1" d="M1537.2 3229.05c-2.34,0.54 -11.67,-0.23 -15.05,0.04 -19.44,1.57 -44.11,6.82 -62.62,11.41 -18.8,4.66 -36.95,10.65 -54.49,18.67 -17.24,7.9 -33.25,15.75 -49.54,25.53l-62.94 46.99 -40.94 40.28 -59.06 75.17c-2.22,2.95 -4.07,5.41 -6.13,8.17 -17.05,22.75 -32.59,46.55 -50.39,68.67l-16.1 20.6c-1.48,1.82 -2.4,2.38 -3.83,4.17 -4.3,5.41 -8.76,10.37 -14.02,15.63l-15.25 14.31c-22.49,19.88 -51.96,31.95 -82.59,36.18 -12.32,1.7 -27.04,4.35 -40.67,4.31 -5.58,-0.01 -8.07,0.95 -14.28,0.92 -9.83,-0.06 -19.7,-0.06 -29.54,-0.01 -6.01,0.03 -8.35,-0.79 -13.35,-0.93 -14.35,-0.41 -27.63,-0.19 -42.22,-2.28 -4.88,-0.7 -9.28,-0.1 -14.14,-0.37 -17.52,-0.97 -30.98,-6.47 -48.27,6.5 -3.15,2.36 -5.11,3.97 -7.67,7.3 -2.64,3.43 -4.02,5.18 -6.42,8.75 -12.04,17.9 -15.91,35.49 -6.03,56.2l9.84 19.69c2.78,5.56 7.04,13.89 10.33,19.29 1.14,1.88 1.6,2.88 2.56,4.57l11.07 18.48c11.17,18.65 27.07,39.07 41.89,54.92l17.8 18.82c0.88,0.85 1.03,1.11 1.67,1.79 12.61,13.45 27.05,25.08 41.29,36.71 2.98,2.43 5.53,4.32 8.56,6.6l44.15 30.02c17.19,10.19 34.65,19.99 53.03,28.31l17.75 8.14c0.86,0.36 2.39,1.04 2.53,1.1l16.48 6.71c28.99,10.55 66.24,24.33 96.32,29.63l11.73 2.56c11.06,1.88 20.09,4.85 31.42,6.08 5.17,0.55 7.65,1.35 12.44,1.87 14.01,1.49 25.68,4.12 40.16,4.45l27.46 2.32c11.61,1.78 44.39,0.31 58.41,0.38 6.19,0.04 9.11,-0.87 14.28,-0.93 5.05,-0.07 10.26,0.42 15.25,-0.21 8.23,-1.04 17.5,-1.52 26.83,-2.69l19.51 -2.06c27.34,-5.57 54.49,-7.83 80.94,-15.79 3.14,-0.94 7.59,-2.41 11.05,-3.15l22.93 -6.68c3.83,-1.14 7.25,-2.3 11.54,-3.73 21.77,-7.25 44.06,-15.61 64.01,-25.62l48.35 -25.09c3.25,-1.82 5.94,-3.53 9.53,-5.7 23.58,-14.26 56.31,-37.02 76.41,-57.13l43.87 -44.73c7.22,-7.49 13.8,-16.85 19.91,-24.95 10.68,-14.18 20.22,-29.5 29.47,-44.89l10.49 -19.11c1.88,-3.76 3.34,-6.68 5.07,-10.15 1.65,-3.28 3.12,-5.82 4.7,-9.7l24.17 -64.43c0.91,-2.54 0.81,-3.2 1.52,-5.78l1.11 -3.27c0.07,-0.23 0.15,-0.46 0.22,-0.69 0.02,-0.08 0.56,-2.16 0.57,-2.22l8.36 -36.41c2.86,-13.94 7.17,-43.93 8.22,-58.17 1.55,-21.05 2.59,-42.25 1.87,-65.4l-4.16 -54.65c-0.74,-4.65 -0.35,-9.33 -1.15,-13.11 -2.72,-12.9 -3.14,-21.83 -13.27,-31.79 -5.55,-5.45 -9.39,-9.45 -15.57,-14.1 -16.99,-12.78 -34.01,-25.22 -51.8,-36.85 -5.85,-3.82 -12.04,-8.01 -18.16,-11.43l-9.2 -5.13c-22.9,-13.06 -46.6,-23.91 -71.04,-33.77 -15,-6.05 -31.67,-10.93 -47.2,-15.52l-9.39 -2.29c-15.83,-4.1 -33.62,-7.88 -49.86,-9.42 -5.71,-0.54 -8.42,-0.62 -13.69,-1.42 -8.04,-1.23 -43.53,-2.47 -54.38,-1.42 -3.63,0.35 -2.35,0.86 -2.66,0.93z"/>
    </g>
   </g>
  </g>
  <path class="fil2" d="M2493.87 6.13c1380.71,0 2500,1119.29 2500,2500 0,1380.71 -1119.29,2500 -2500,2500 -1380.71,0 -2500,-1119.29 -2500,-2500 0,-1380.71 1119.29,-2500 2500,-2500z"/>
 </g>
 </symbol>
</svg>
