<svg xmlns="http://www.w3.org/2000/svg" style="display:none">
    <symbol id="chem-mask-icon" viewBox="0 0 5000 5000">

   
        <defs>
            <clipPath id="chem-mask-clip">
                <path
                    d="M2492.87 0.53c1380.71,0 2500,1119.29 2500,2500 0,1380.71 -1119.29,2500 -2500,2500 -1380.71,0 -2500,-1119.29 -2500,-2500 0,-1380.71 1119.29,-2500 2500,-2500z" />
            </clipPath>
        </defs>
        <style>
            .bg { fill: var(--bg-icon, black); }
            .mask { fill: var(--mask-light, #FEFEFE); }
            .mask-dark { fill: var(--mask-dark, #373435); }
            .mask-stroke { fill: var(--mask-stroke, #373435); }
            .fil4 { fill: none; }

            .str0 {
            stroke: var(--mask-stroke, #373435);
            stroke-width: 20;
            stroke-miterlimit: 22.9256;
            }
        </style>
        <g id="Camada_x0020_1">
 
            <path class="bg"
                d="M2492.87 0.53c1380.71,0 2500,1119.29 2500,2500 0,1380.71 -1119.29,2500 -2500,2500 -1380.71,0 -2500,-1119.29 -2500,-2500 0,-1380.71 1119.29,-2500 2500,-2500z" />
            <g style="clip-path:url(#chem-mask-clip)">
                <g id="_2525635210128">
                    <g>
                        <path id="_1" class="mask"
                            d="M2535.9 3420.28c-166.06,0 -289.49,-45.83 -399.2,-155.37 -24.64,-24.6 -42.51,-37.97 -58.39,-65.91 -96.75,-170.2 -134.65,-312.05 -54.98,-511.2l83.03 -136.89c185.35,-192.78 407.59,-234.37 652.47,-128.05 47.12,20.47 120.7,86.66 153.79,123.5l85.64 134.28c157.16,324.6 -104.12,739.64 -462.36,739.64zm-905.21 -643.77c70.51,139.68 179.72,410.86 245.62,557.55 290.02,429.74 391.38,390.98 630.25,396.78 262.44,6.37 472.79,-104.55 624.82,-451.32 11.82,-28.4 16.81,-33.76 26.98,-59.07 75.77,-188.53 170.63,-372.7 244.89,-558.28 80.67,-201.58 80.26,-247.18 112.94,-688.05 15,-422.23 -82.87,-805.46 -192.84,-990.5 -222.51,-259.92 -425.22,-404.09 -803.48,-402.8 -261.61,0.89 -552.59,140.57 -656.47,264.21 -39.26,19.2 -121.51,118.42 -151.15,154.82 -47.13,57.86 -423.95,1098.36 -81.56,1776.66z" />
                        <path class="mask-dark str0"
                            d="M1943.37 2900.92c-9.42,-357.28 182.54,-645.32 570.37,-645.32 396.46,0 568.99,266.22 568.99,638.56l-1139.36 6.76z" />
                        <path class="mask"
                            d="M3348.63 3774.06l564.02 239.14c28.43,14.14 58.35,23.42 86.16,38.14 16.66,-71.49 34.03,-90.72 58.71,-151.64l298.41 -686.44c15.49,-32.74 15.95,-50.69 31.47,-83.26 28.51,-59.81 122.75,-252.1 127.74,-312.1 -48.71,-25.77 -105.22,-46.13 -159.9,-69.58 -58.41,-25.05 -102.63,-44.39 -158.78,-70.7l-321.95 -137c-3,36.04 -291.69,680.58 -329.2,770.37l-196.68 463.07z" />
                        <path class="mask"
                            d="M470.6 2817.9c3.79,45.56 65.89,177.7 89.35,226.19l167.38 387.19c31.76,86.65 247.1,556.85 259.6,610.5 58.21,-1.3 411.44,-175.2 486.42,-202.01 31.19,-11.15 49.15,-19.16 81.81,-32.93 31.03,-13.08 53.7,-26.2 81.95,-32.78 -7.8,-33.48 -18.24,-42.57 -31.58,-73.6 -32.47,-75.54 -51.05,-140.26 -99.14,-235.52l-266.95 -612.7c-20.4,-51.6 -125.73,-281.8 -128.21,-311.62l-159.25 70.23c-99.78,48.44 -383.51,155.27 -481.38,207.05z" />
                        <path class="mask"
                            d="M1159.03 2531.05c21.37,44.54 38.95,94.09 58.64,142.17 19.2,46.9 45.67,100.11 64.32,146.02l313.5 728.71c16.33,37.59 57.93,115.77 60.75,149.61 29.66,-6.91 42.61,-16.6 66.84,-28.77 22.76,-11.43 44.67,-17.87 67.02,-28.59l-497.2 -1156.95c-47.13,10.98 -88.99,44.07 -133.87,47.8z" />
                        <path class="mask"
                            d="M3195.64 3640.2c22.35,10.72 44.26,17.16 67.02,28.59 24.23,12.17 37.18,21.86 66.84,28.77 2.8,-33.54 42.85,-108.84 57.74,-143.05l439.47 -1023.46c-46.32,-3.85 -78.98,-35.02 -133.87,-47.8l-433.52 1010.26c-22.82,51.05 -40.94,99.3 -63.68,146.69z" />
                        <path class="mask"
                            d="M948.68 4041.78c-2.75,-33.01 -167.11,-397.7 -194.67,-455.52l-129.13 -301.14c-20.88,-55.82 -39.41,-101.55 -65.03,-154.88l-98.9 -226.19c-7.47,-15.13 -11.26,-25.65 -17.43,-39.94l-20.72 -36.64c0,257.64 92.39,637.2 233.17,847.28 16.92,25.24 29.05,39.55 44.17,61 54.44,77.18 179.1,255.15 248.54,306.03z" />
                        <path class="mask"
                            d="M4037.06 4041.78c32.82,-21.98 26.45,-25.56 50.69,-54.49 119.05,-142.04 133.83,-152.39 238.2,-306.81 143.66,-212.54 236.99,-589.02 236.99,-853.01 -1.49,1.71 -3.56,2.31 -4.09,5.46l-64.05 136.74c-18.89,52.92 -41.32,104.83 -65.82,154.1l-391.92 918.01z" />
                        <path class="mask"
                            d="M1455.44 2770.09l146.55 350.66c18.52,38.22 89.85,191.27 92.49,223.04 28.85,-2.4 101.32,-35.65 124.3,-47.81 -4.73,-56.8 -218.98,-478.06 -239.04,-564.13 -50.69,4.22 -73.61,34.03 -124.3,38.24z" />
                        <path class="mask"
                            d="M3166.96 3295.98c22.98,12.16 95.45,45.41 124.3,47.81 3.61,-43.4 97.21,-224.64 116.93,-284.66 21.01,-63.99 102.81,-206.2 122.11,-289.04 -50.69,-4.21 -73.61,-34.02 -124.3,-38.24 -10,42.9 -38.96,106.58 -57.23,143.56 -22.34,45.2 -40.96,88.17 -63.87,136.93l-117.94 283.64z" />
                        <path class="mask-stroke str0"
                            d="M2513.03 2328.64c314.64,0 569.7,253.19 569.7,565.52 0,312.32 -255.06,565.52 -569.7,565.52 -314.63,0 -569.7,-253.2 -569.7,-565.52 0,-312.33 255.07,-565.52 569.7,-565.52z" />
                        <path class="mask str0"
                            d="M2513.03 2366.79c293.57,0 531.55,236.11 531.55,527.37 0,291.25 -237.98,527.37 -531.55,527.37 -293.56,0 -531.55,-236.12 -531.55,-527.37 0,-291.26 237.99,-527.37 531.55,-527.37z" />
                        <path class="mask-dark"
                            d="M2424.4 3151.84c0,-117.42 175.32,-109.81 175.32,11.68 0,99.08 -175.32,118.4 -175.32,-11.68zm338.95 -46.76c-169.5,0 -109.9,-175.31 -23.38,-175.31 122.56,0 110.44,175.31 23.38,175.31zm-479.2 -175.31c37.59,0 78.83,38.72 87.16,76.44 28.14,127.58 -190.07,136.98 -175.77,8.52 4.66,-41.83 48.57,-84.96 88.61,-84.96zm455.82 -81.81c-104.19,0 -116.68,-175.32 0,-175.32 132.27,0 112.13,175.32 0,175.32zm-455.82 0c-100.82,0 -135.4,-175.32 0,-175.32 122.45,0 107.52,175.32 0,175.32zm140.25 -222.07c0,-53.47 33.29,-84.92 83.83,-87.07 30.9,-1.31 91.49,33.95 91.49,75.38 0,130.87 -175.32,136.7 -175.32,11.69zm-362.31 257.13c0,116.95 49.29,243.06 125.29,318.84 183.76,183.21 465.44,183.97 637.68,11.68 184.15,-184.2 172.63,-473.75 19.16,-621.78 -202.87,-195.67 -462.3,-196.48 -662.47,1.85 -66.89,66.27 -119.66,184.07 -119.66,289.41z" />
                        <g>
                            <path class="mask-stroke str0"
                                d="M2011.85 1249.74c259.51,0 469.89,204.34 469.89,456.4 0,252.05 -210.38,456.39 -469.89,456.39 -259.52,0 -469.9,-204.34 -469.9,-456.39 0,-252.06 210.38,-456.4 469.9,-456.4z" />
                        </g>
                        <path class="mask str0"
                            d="M2011.85 1322.66c219.25,0 396.99,171.69 396.99,383.48 0,211.79 -177.74,383.48 -396.99,383.48 -219.25,0 -396.98,-171.69 -396.98,-383.48 0,-211.79 177.73,-383.48 396.98,-383.48z" />
                        <g>
                            <path class="mask-stroke str0"
                                d="M3012.76 1249.74c259.52,0 469.9,204.34 469.9,456.4 0,252.05 -210.38,456.39 -469.9,456.39 -259.51,0 -469.89,-204.34 -469.89,-456.39 0,-252.06 210.38,-456.4 469.89,-456.4z" />
                        </g>
                        <path class="mask str0"
                            d="M3012.76 1322.66c219.24,0 396.98,171.69 396.98,383.48 0,211.79 -177.74,383.48 -396.98,383.48 -219.25,0 -396.99,-171.69 -396.99,-383.48 0,-211.79 177.74,-383.48 396.99,-383.48z" />
                    </g>
                </g>
            </g>
        </g>
    </symbol>

</svg>