<svg xmlns="http://www.w3.org/2000/svg" style="display:none">
    <symbol id="data_analise-icon" viewBox="0 0 5000 5000">
 <defs>
  <style type="text/css">
   <![CDATA[
    .fil3 {fill:none}
    .fil1 {fill:#FEFEFE}
    .fil2 {fill:#373435}
    .fil0 {fill:black}
   ]]>
  </style>
   <clipPath id="id0">
    <path d="M2493.87 6.13c1380.71,0 2500,1119.29 2500,2500 0,1380.71 -1119.29,2500 -2500,2500 -1380.71,0 -2500,-1119.29 -2500,-2500 0,-1380.71 1119.29,-2500 2500,-2500z"/>
   </clipPath>
 </defs>
 <g id="Camada_x0020_1">
  <metadata id="CorelCorpID_0Corel-Layer"/>
  <path class="fil0" d="M2493.87 6.13c1380.71,0 2500,1119.29 2500,2500 0,1380.71 -1119.29,2500 -2500,2500 -1380.71,0 -2500,-1119.29 -2500,-2500 0,-1380.71 1119.29,-2500 2500,-2500z"/>
  <g style="clip-path:url(#id0)">
   <g id="_2526258808704">
    <g>
     <path id="_1" class="fil1" d="M1193.14 1632.56l1385.01 0c74.32,0 135.12,60.81 135.12,135.12l0 2337.82c0,74.32 -60.8,135.12 -135.12,135.12l-1385.01 0c-74.32,0 -135.13,-60.8 -135.13,-135.12l0 -2337.82c0,-74.31 60.81,-135.12 135.13,-135.12zm1249.27 2307.1l86.6 0c26.46,0 48.11,21.65 48.11,48.11l0 76.98c0,26.46 -21.65,48.11 -48.11,48.11l-86.6 0c-26.46,0 -48.11,-21.65 -48.11,-48.11l0 -76.98c0,-26.46 21.65,-48.11 48.11,-48.11zm0 -205.42l86.6 0c26.46,0 48.11,21.65 48.11,48.11l0 76.98c0,26.46 -21.65,48.11 -48.11,48.11l-86.6 0c-26.46,0 -48.11,-21.65 -48.11,-48.11l0 -76.98c0,-26.46 21.65,-48.11 48.11,-48.11zm0 -205.43l86.6 0c26.46,0 48.11,21.65 48.11,48.11l0 76.99c0,26.46 -21.65,48.11 -48.11,48.11l-86.6 0c-26.46,0 -48.11,-21.65 -48.11,-48.11l0 -76.99c0,-26.46 21.65,-48.11 48.11,-48.11zm-239.2 410.85l86.6 0c26.46,0 48.11,21.65 48.11,48.11l0 76.98c0,26.46 -21.65,48.11 -48.11,48.11l-86.6 0c-26.46,0 -48.11,-21.65 -48.11,-48.11l0 -76.98c0,-26.46 21.65,-48.11 48.11,-48.11zm0 -205.42l86.6 0c26.46,0 48.11,21.65 48.11,48.11l0 76.98c0,26.46 -21.65,48.11 -48.11,48.11l-86.6 0c-26.46,0 -48.11,-21.65 -48.11,-48.11l0 -76.98c0,-26.46 21.65,-48.11 48.11,-48.11zm0 -205.43l86.6 0c26.46,0 48.11,21.65 48.11,48.11l0 76.99c0,26.46 -21.65,48.11 -48.11,48.11l-86.6 0c-26.46,0 -48.11,-21.65 -48.11,-48.11l0 -76.99c0,-26.46 21.65,-48.11 48.11,-48.11zm-239.2 410.85l86.6 0c26.46,0 48.11,21.65 48.11,48.11l0 76.98c0,26.46 -21.65,48.11 -48.11,48.11l-86.6 0c-26.47,0 -48.11,-21.65 -48.11,-48.11l0 -76.98c0,-26.46 21.64,-48.11 48.11,-48.11zm0 -205.42l86.6 0c26.46,0 48.11,21.65 48.11,48.11l0 76.98c0,26.46 -21.65,48.11 -48.11,48.11l-86.6 0c-26.47,0 -48.11,-21.65 -48.11,-48.11l0 -76.98c0,-26.46 21.64,-48.11 48.11,-48.11zm0 -205.43l86.6 0c26.46,0 48.11,21.65 48.11,48.11l0 76.99c0,26.46 -21.65,48.11 -48.11,48.11l-86.6 0c-26.47,0 -48.11,-21.65 -48.11,-48.11l0 -76.99c0,-26.46 21.64,-48.11 48.11,-48.11zm-239.21 410.85l86.61 0c26.46,0 48.11,21.65 48.11,48.11l0 76.98c0,26.46 -21.65,48.11 -48.11,48.11l-86.61 0c-26.46,0 -48.11,-21.65 -48.11,-48.11l0 -76.98c0,-26.46 21.65,-48.11 48.11,-48.11zm0 -205.42l86.61 0c26.46,0 48.11,21.65 48.11,48.11l0 76.98c0,26.46 -21.65,48.11 -48.11,48.11l-86.61 0c-26.46,0 -48.11,-21.65 -48.11,-48.11l0 -76.98c0,-26.46 21.65,-48.11 48.11,-48.11zm0 -205.43l86.61 0c26.46,0 48.11,21.65 48.11,48.11l0 76.99c0,26.46 -21.65,48.11 -48.11,48.11l-86.61 0c-26.46,0 -48.11,-21.65 -48.11,-48.11l0 -76.99c0,-26.46 21.65,-48.11 48.11,-48.11zm-239.2 410.85l86.61 0c26.46,0 48.11,21.65 48.11,48.11l0 76.98c0,26.46 -21.65,48.11 -48.11,48.11l-86.61 0c-26.46,0 -48.11,-21.65 -48.11,-48.11l0 -76.98c0,-26.46 21.65,-48.11 48.11,-48.11zm0 -205.42l86.61 0c26.46,0 48.11,21.65 48.11,48.11l0 76.98c0,26.46 -21.65,48.11 -48.11,48.11l-86.61 0c-26.46,0 -48.11,-21.65 -48.11,-48.11l0 -76.98c0,-26.46 21.65,-48.11 48.11,-48.11zm0 -205.43l86.61 0c26.46,0 48.11,21.65 48.11,48.11l0 76.99c0,26.46 -21.65,48.11 -48.11,48.11l-86.61 0c-26.46,0 -48.11,-21.65 -48.11,-48.11l0 -76.99c0,-26.46 21.65,-48.11 48.11,-48.11zm-239.2 410.85l86.61 0c26.46,0 48.11,21.65 48.11,48.11l0 76.98c0,26.46 -21.65,48.11 -48.11,48.11l-86.61 0c-26.46,0 -48.11,-21.65 -48.11,-48.11l0 -76.98c0,-26.46 21.65,-48.11 48.11,-48.11zm0 -205.42l86.61 0c26.46,0 48.11,21.65 48.11,48.11l0 76.98c0,26.46 -21.65,48.11 -48.11,48.11l-86.61 0c-26.46,0 -48.11,-21.65 -48.11,-48.11l0 -76.98c0,-26.46 21.65,-48.11 48.11,-48.11zm0 -205.43l86.61 0c26.46,0 48.11,21.65 48.11,48.11l0 76.99c0,26.46 -21.65,48.11 -48.11,48.11l-86.61 0c-26.46,0 -48.11,-21.65 -48.11,-48.11l0 -76.99c0,-26.46 21.65,-48.11 48.11,-48.11zm1196.01 -205.42l86.6 0c26.46,0 48.11,21.65 48.11,48.11l0 76.98c0,26.46 -21.65,48.11 -48.11,48.11l-86.6 0c-26.46,0 -48.11,-21.65 -48.11,-48.11l0 -76.98c0,-26.46 21.65,-48.11 48.11,-48.11zm-239.2 0l86.6 0c26.46,0 48.11,21.65 48.11,48.11l0 76.98c0,26.46 -21.65,48.11 -48.11,48.11l-86.6 0c-26.46,0 -48.11,-21.65 -48.11,-48.11l0 -76.98c0,-26.46 21.65,-48.11 48.11,-48.11zm-239.2 0l86.6 0c26.46,0 48.11,21.65 48.11,48.11l0 76.98c0,26.46 -21.65,48.11 -48.11,48.11l-86.6 0c-26.47,0 -48.11,-21.65 -48.11,-48.11l0 -76.98c0,-26.46 21.64,-48.11 48.11,-48.11zm-239.21 0l86.61 0c26.46,0 48.11,21.65 48.11,48.11l0 76.98c0,26.46 -21.65,48.11 -48.11,48.11l-86.61 0c-26.46,0 -48.11,-21.65 -48.11,-48.11l0 -76.98c0,-26.46 21.65,-48.11 48.11,-48.11zm-239.2 0l86.61 0c26.46,0 48.11,21.65 48.11,48.11l0 76.98c0,26.46 -21.65,48.11 -48.11,48.11l-86.61 0c-26.46,0 -48.11,-21.65 -48.11,-48.11l0 -76.98c0,-26.46 21.65,-48.11 48.11,-48.11zm-239.2 0l86.61 0c26.46,0 48.11,21.65 48.11,48.11l0 76.98c0,26.46 -21.65,48.11 -48.11,48.11l-86.61 0c-26.46,0 -48.11,-21.65 -48.11,-48.11l0 -76.98c0,-26.46 21.65,-48.11 48.11,-48.11zm1144.11 -218.32l114.18 0c19.97,0 36.32,16.35 36.32,36.33l0 51.9c0,19.98 -16.35,36.33 -36.32,36.33l-114.18 0c-19.98,0 -36.33,-16.35 -36.33,-36.33l0 -51.9c0,-19.98 16.35,-36.33 36.33,-36.33zm-232.16 0l114.17 0c19.98,0 36.33,16.35 36.33,36.33l0 51.9c0,19.98 -16.35,36.33 -36.33,36.33l-114.17 0c-19.98,0 -36.33,-16.35 -36.33,-36.33l0 -51.9c0,-19.98 16.35,-36.33 36.33,-36.33zm-232.17 0l114.17 0c19.98,0 36.33,16.35 36.33,36.33l0 51.9c0,19.98 -16.35,36.33 -36.33,36.33l-114.17 0c-19.98,0 -36.33,-16.35 -36.33,-36.33l0 -51.9c0,-19.98 16.35,-36.33 36.33,-36.33zm-232.17 0l114.18 0c19.98,0 36.33,16.35 36.33,36.33l0 51.9c0,19.98 -16.35,36.33 -36.33,36.33l-114.18 0c-19.98,0 -36.32,-16.35 -36.32,-36.33l0 -51.9c0,-19.98 16.34,-36.33 36.32,-36.33zm-232.16 0l114.17 0c19.98,0 36.33,16.35 36.33,36.33l0 51.9c0,19.98 -16.35,36.33 -36.33,36.33l-114.17 0c-19.98,0 -36.33,-16.35 -36.33,-36.33l0 -51.9c0,-19.98 16.35,-36.33 36.33,-36.33zm-232.17 0l114.18 0c19.98,0 36.33,16.35 36.33,36.33l0 51.9c0,19.98 -16.35,36.33 -36.33,36.33l-114.18 0c-19.97,0 -36.32,-16.35 -36.32,-36.33l0 -51.9c0,-19.98 16.35,-36.33 36.32,-36.33zm1160.83 -163.07l114.18 0c19.97,0 36.32,16.35 36.32,36.33l0 51.9c0,19.98 -16.35,36.33 -36.32,36.33l-114.18 0c-19.98,0 -36.33,-16.35 -36.33,-36.33l0 -51.9c0,-19.98 16.35,-36.33 36.33,-36.33zm-232.16 0l114.17 0c19.98,0 36.33,16.35 36.33,36.33l0 51.9c0,19.98 -16.35,36.33 -36.33,36.33l-114.17 0c-19.98,0 -36.33,-16.35 -36.33,-36.33l0 -51.9c0,-19.98 16.35,-36.33 36.33,-36.33zm-232.17 0l114.17 0c19.98,0 36.33,16.35 36.33,36.33l0 51.9c0,19.98 -16.35,36.33 -36.33,36.33l-114.17 0c-19.98,0 -36.33,-16.35 -36.33,-36.33l0 -51.9c0,-19.98 16.35,-36.33 36.33,-36.33zm-232.17 0l114.18 0c19.98,0 36.33,16.35 36.33,36.33l0 51.9c0,19.98 -16.35,36.33 -36.33,36.33l-114.18 0c-19.98,0 -36.32,-16.35 -36.32,-36.33l0 -51.9c0,-19.98 16.34,-36.33 36.32,-36.33zm-232.16 0l114.17 0c19.98,0 36.33,16.35 36.33,36.33l0 51.9c0,19.98 -16.35,36.33 -36.33,36.33l-114.17 0c-19.98,0 -36.33,-16.35 -36.33,-36.33l0 -51.9c0,-19.98 16.35,-36.33 36.33,-36.33zm-232.17 0l114.18 0c19.98,0 36.33,16.35 36.33,36.33l0 51.9c0,19.98 -16.35,36.33 -36.33,36.33l-114.18 0c-19.97,0 -36.32,-16.35 -36.32,-36.33l0 -51.9c0,-19.98 16.35,-36.33 36.32,-36.33zm474.84 -268.18l0 46.11c0,5.77 3.59,10.49 7.98,10.49l71.7 0c11.12,0 27.89,-23.68 27.89,-33.5 0,-9.83 -17.22,-33.6 -27.89,-33.6l-71.7 0c-4.39,0 -7.98,4.72 -7.98,10.5zm125.79 146.42l46.12 0c5.78,0 10.5,-3.59 10.5,-7.97l0 -71.71c0,-11.11 -23.68,-27.9 -33.51,-27.9 -9.84,0 -33.6,17.22 -33.6,27.9l0 71.71c0,4.38 4.72,7.97 10.49,7.97zm174.46 -100.31l0 -46.11c0,-5.78 -3.59,-10.5 -7.98,-10.5l-71.7 0c-11.12,0 -27.89,23.68 -27.89,33.5 0,9.83 17.22,33.6 27.89,33.6l71.7 0c4.39,0 7.98,-4.72 7.98,-10.49zm-128.34 -146.44l-46.12 0c-5.77,0 -10.49,3.6 -10.49,7.98l0 71.7c0,11.13 23.68,27.9 33.51,27.9 9.82,0 33.6,-17.22 33.6,-27.9l0 -71.7c0,-4.38 -4.72,-7.98 -10.5,-7.98zm-567.62 -14.71c-38.98,0 -70.58,31.62 -70.58,70.59 0,38.99 31.6,70.59 70.58,70.59 38.99,0 70.6,-31.6 70.6,-70.59 0,-38.97 -31.61,-70.59 -70.6,-70.59zm177 0c-38.99,0 -70.59,31.62 -70.59,70.59 0,38.99 31.6,70.59 70.59,70.59 38.97,0 70.58,-31.6 70.58,-70.59 0,-38.97 -31.61,-70.59 -70.58,-70.59zm933.75 -3.04c-38.97,0 -70.57,31.6 -70.57,70.58 0,38.99 31.6,70.58 70.57,70.58 38.99,0 70.58,-31.59 70.58,-70.58 0,-38.98 -31.59,-70.58 -70.58,-70.58zm-176.98 3.04c-38.98,0 -70.59,31.62 -70.59,70.59 0,38.99 31.61,70.59 70.59,70.59 38.98,0 70.58,-31.6 70.58,-70.59 0,-38.97 -31.6,-70.59 -70.58,-70.59zm-995.53 -656.93l1273.51 0c45.21,0 82.2,36.99 82.2,82.2l0 388.6c0,45.21 -36.99,82.2 -82.2,82.2l-1273.51 0c-45.21,0 -82.2,-36.99 -82.2,-82.2l0 -388.6c0,-45.21 36.99,-82.2 82.2,-82.2z"/>
     <path class="fil2" d="M1247.05 1901.85l1273.51 0c45.21,0 82.2,36.99 82.2,82.2l0 388.6c0,45.21 -36.99,82.2 -82.2,82.2l-1273.51 0c-45.21,0 -82.2,-36.99 -82.2,-82.2l0 -388.6c0,-45.21 36.99,-82.2 82.2,-82.2z"/>
     <g>
      <path class="fil2" d="M2419.56 2555.74c-38.97,0 -70.57,31.6 -70.57,70.58 0,38.99 31.6,70.58 70.57,70.58 38.99,0 70.58,-31.59 70.58,-70.58 0,-38.98 -31.59,-70.58 -70.58,-70.58z"/>
      <path class="fil2" d="M2242.58 2558.78c-38.98,0 -70.59,31.62 -70.59,70.59 0,38.99 31.61,70.59 70.59,70.59 38.98,0 70.58,-31.6 70.58,-70.59 0,-38.97 -31.6,-70.59 -70.58,-70.59z"/>
     </g>
     <g>
      <path class="fil2" d="M1308.81 2558.78c-38.98,0 -70.58,31.62 -70.58,70.59 0,38.99 31.6,70.59 70.58,70.59 38.99,0 70.6,-31.6 70.6,-70.59 0,-38.97 -31.61,-70.59 -70.6,-70.59z"/>
      <path class="fil2" d="M1485.81 2558.78c-38.99,0 -70.59,31.62 -70.59,70.59 0,38.99 31.6,70.59 70.59,70.59 38.97,0 70.58,-31.6 70.58,-70.59 0,-38.97 -31.61,-70.59 -70.58,-70.59z"/>
     </g>
     <g>
      <path class="fil2" d="M1704.52 2673.82l0 46.11c0,5.77 3.59,10.49 7.98,10.49l71.7 0c11.12,0 27.89,-23.68 27.89,-33.5 0,-9.83 -17.22,-33.6 -27.89,-33.6l-71.7 0c-4.39,0 -7.98,4.72 -7.98,10.5z"/>
      <path class="fil2" d="M1830.31 2820.24l46.12 0c5.78,0 10.5,-3.59 10.5,-7.97l0 -71.71c0,-11.11 -23.68,-27.9 -33.51,-27.9 -9.84,0 -33.6,17.22 -33.6,27.9l0 71.71c0,4.38 4.72,7.97 10.49,7.97z"/>
      <path class="fil2" d="M2004.77 2719.93l0 -46.11c0,-5.78 -3.59,-10.5 -7.98,-10.5l-71.7 0c-11.12,0 -27.89,23.68 -27.89,33.5 0,9.83 17.22,33.6 27.89,33.6l71.7 0c4.39,0 7.98,-4.72 7.98,-10.49z"/>
      <path class="fil2" d="M1876.43 2573.49l-46.12 0c-5.77,0 -10.49,3.6 -10.49,7.98l0 71.7c0,11.13 23.68,27.9 33.51,27.9 9.82,0 33.6,-17.22 33.6,-27.9l0 -71.7c0,-4.38 -4.72,-7.98 -10.5,-7.98z"/>
     </g>
     <path class="fil2" d="M1229.68 2942l114.18 0c19.98,0 36.33,16.35 36.33,36.33l0 51.9c0,19.98 -16.35,36.33 -36.33,36.33l-114.18 0c-19.97,0 -36.32,-16.35 -36.32,-36.33l0 -51.9c0,-19.98 16.35,-36.33 36.32,-36.33z"/>
     <path class="fil2" d="M1461.85 2942l114.17 0c19.98,0 36.33,16.35 36.33,36.33l0 51.9c0,19.98 -16.35,36.33 -36.33,36.33l-114.17 0c-19.98,0 -36.33,-16.35 -36.33,-36.33l0 -51.9c0,-19.98 16.35,-36.33 36.33,-36.33z"/>
     <path class="fil2" d="M1694.01 2942l114.18 0c19.98,0 36.33,16.35 36.33,36.33l0 51.9c0,19.98 -16.35,36.33 -36.33,36.33l-114.18 0c-19.98,0 -36.32,-16.35 -36.32,-36.33l0 -51.9c0,-19.98 16.34,-36.33 36.32,-36.33z"/>
     <path class="fil2" d="M1926.18 2942l114.17 0c19.98,0 36.33,16.35 36.33,36.33l0 51.9c0,19.98 -16.35,36.33 -36.33,36.33l-114.17 0c-19.98,0 -36.33,-16.35 -36.33,-36.33l0 -51.9c0,-19.98 16.35,-36.33 36.33,-36.33z"/>
     <path class="fil2" d="M2158.35 2942l114.17 0c19.98,0 36.33,16.35 36.33,36.33l0 51.9c0,19.98 -16.35,36.33 -36.33,36.33l-114.17 0c-19.98,0 -36.33,-16.35 -36.33,-36.33l0 -51.9c0,-19.98 16.35,-36.33 36.33,-36.33z"/>
     <path class="fil2" d="M2390.51 2942l114.18 0c19.97,0 36.32,16.35 36.32,36.33l0 51.9c0,19.98 -16.35,36.33 -36.32,36.33l-114.18 0c-19.98,0 -36.33,-16.35 -36.33,-36.33l0 -51.9c0,-19.98 16.35,-36.33 36.33,-36.33z"/>
     <path class="fil2" d="M1229.68 3105.07l114.18 0c19.98,0 36.33,16.35 36.33,36.33l0 51.9c0,19.98 -16.35,36.33 -36.33,36.33l-114.18 0c-19.97,0 -36.32,-16.35 -36.32,-36.33l0 -51.9c0,-19.98 16.35,-36.33 36.32,-36.33z"/>
     <path class="fil2" d="M1461.85 3105.07l114.17 0c19.98,0 36.33,16.35 36.33,36.33l0 51.9c0,19.98 -16.35,36.33 -36.33,36.33l-114.17 0c-19.98,0 -36.33,-16.35 -36.33,-36.33l0 -51.9c0,-19.98 16.35,-36.33 36.33,-36.33z"/>
     <path class="fil2" d="M1694.01 3105.07l114.18 0c19.98,0 36.33,16.35 36.33,36.33l0 51.9c0,19.98 -16.35,36.33 -36.33,36.33l-114.18 0c-19.98,0 -36.32,-16.35 -36.32,-36.33l0 -51.9c0,-19.98 16.34,-36.33 36.32,-36.33z"/>
     <path class="fil2" d="M1926.18 3105.07l114.17 0c19.98,0 36.33,16.35 36.33,36.33l0 51.9c0,19.98 -16.35,36.33 -36.33,36.33l-114.17 0c-19.98,0 -36.33,-16.35 -36.33,-36.33l0 -51.9c0,-19.98 16.35,-36.33 36.33,-36.33z"/>
     <path class="fil2" d="M2158.35 3105.07l114.17 0c19.98,0 36.33,16.35 36.33,36.33l0 51.9c0,19.98 -16.35,36.33 -36.33,36.33l-114.17 0c-19.98,0 -36.33,-16.35 -36.33,-36.33l0 -51.9c0,-19.98 16.35,-36.33 36.33,-36.33z"/>
     <path class="fil2" d="M2390.51 3105.07l114.18 0c19.97,0 36.32,16.35 36.32,36.33l0 51.9c0,19.98 -16.35,36.33 -36.32,36.33l-114.18 0c-19.98,0 -36.33,-16.35 -36.33,-36.33l0 -51.9c0,-19.98 16.35,-36.33 36.33,-36.33z"/>
     <path class="fil2" d="M1246.4 3323.39l86.61 0c26.46,0 48.11,21.65 48.11,48.11l0 76.98c0,26.46 -21.65,48.11 -48.11,48.11l-86.61 0c-26.46,0 -48.11,-21.65 -48.11,-48.11l0 -76.98c0,-26.46 21.65,-48.11 48.11,-48.11z"/>
     <path class="fil2" d="M1485.6 3323.39l86.61 0c26.46,0 48.11,21.65 48.11,48.11l0 76.98c0,26.46 -21.65,48.11 -48.11,48.11l-86.61 0c-26.46,0 -48.11,-21.65 -48.11,-48.11l0 -76.98c0,-26.46 21.65,-48.11 48.11,-48.11z"/>
     <path class="fil2" d="M1724.8 3323.39l86.61 0c26.46,0 48.11,21.65 48.11,48.11l0 76.98c0,26.46 -21.65,48.11 -48.11,48.11l-86.61 0c-26.46,0 -48.11,-21.65 -48.11,-48.11l0 -76.98c0,-26.46 21.65,-48.11 48.11,-48.11z"/>
     <path class="fil2" d="M1964.01 3323.39l86.6 0c26.46,0 48.11,21.65 48.11,48.11l0 76.98c0,26.46 -21.65,48.11 -48.11,48.11l-86.6 0c-26.47,0 -48.11,-21.65 -48.11,-48.11l0 -76.98c0,-26.46 21.64,-48.11 48.11,-48.11z"/>
     <path class="fil2" d="M2203.21 3323.39l86.6 0c26.46,0 48.11,21.65 48.11,48.11l0 76.98c0,26.46 -21.65,48.11 -48.11,48.11l-86.6 0c-26.46,0 -48.11,-21.65 -48.11,-48.11l0 -76.98c0,-26.46 21.65,-48.11 48.11,-48.11z"/>
     <path class="fil2" d="M2442.41 3323.39l86.6 0c26.46,0 48.11,21.65 48.11,48.11l0 76.98c0,26.46 -21.65,48.11 -48.11,48.11l-86.6 0c-26.46,0 -48.11,-21.65 -48.11,-48.11l0 -76.98c0,-26.46 21.65,-48.11 48.11,-48.11z"/>
     <path class="fil2" d="M1246.4 3528.81l86.61 0c26.46,0 48.11,21.65 48.11,48.11l0 76.99c0,26.46 -21.65,48.11 -48.11,48.11l-86.61 0c-26.46,0 -48.11,-21.65 -48.11,-48.11l0 -76.99c0,-26.46 21.65,-48.11 48.11,-48.11z"/>
     <path class="fil2" d="M1246.4 3734.24l86.61 0c26.46,0 48.11,21.65 48.11,48.11l0 76.98c0,26.46 -21.65,48.11 -48.11,48.11l-86.61 0c-26.46,0 -48.11,-21.65 -48.11,-48.11l0 -76.98c0,-26.46 21.65,-48.11 48.11,-48.11z"/>
     <path class="fil2" d="M1246.4 3939.66l86.61 0c26.46,0 48.11,21.65 48.11,48.11l0 76.98c0,26.46 -21.65,48.11 -48.11,48.11l-86.61 0c-26.46,0 -48.11,-21.65 -48.11,-48.11l0 -76.98c0,-26.46 21.65,-48.11 48.11,-48.11z"/>
     <path class="fil2" d="M1485.6 3528.81l86.61 0c26.46,0 48.11,21.65 48.11,48.11l0 76.99c0,26.46 -21.65,48.11 -48.11,48.11l-86.61 0c-26.46,0 -48.11,-21.65 -48.11,-48.11l0 -76.99c0,-26.46 21.65,-48.11 48.11,-48.11z"/>
     <path class="fil2" d="M1485.6 3734.24l86.61 0c26.46,0 48.11,21.65 48.11,48.11l0 76.98c0,26.46 -21.65,48.11 -48.11,48.11l-86.61 0c-26.46,0 -48.11,-21.65 -48.11,-48.11l0 -76.98c0,-26.46 21.65,-48.11 48.11,-48.11z"/>
     <path class="fil2" d="M1485.6 3939.66l86.61 0c26.46,0 48.11,21.65 48.11,48.11l0 76.98c0,26.46 -21.65,48.11 -48.11,48.11l-86.61 0c-26.46,0 -48.11,-21.65 -48.11,-48.11l0 -76.98c0,-26.46 21.65,-48.11 48.11,-48.11z"/>
     <path class="fil2" d="M1724.8 3528.81l86.61 0c26.46,0 48.11,21.65 48.11,48.11l0 76.99c0,26.46 -21.65,48.11 -48.11,48.11l-86.61 0c-26.46,0 -48.11,-21.65 -48.11,-48.11l0 -76.99c0,-26.46 21.65,-48.11 48.11,-48.11z"/>
     <path class="fil2" d="M1724.8 3734.24l86.61 0c26.46,0 48.11,21.65 48.11,48.11l0 76.98c0,26.46 -21.65,48.11 -48.11,48.11l-86.61 0c-26.46,0 -48.11,-21.65 -48.11,-48.11l0 -76.98c0,-26.46 21.65,-48.11 48.11,-48.11z"/>
     <path class="fil2" d="M1724.8 3939.66l86.61 0c26.46,0 48.11,21.65 48.11,48.11l0 76.98c0,26.46 -21.65,48.11 -48.11,48.11l-86.61 0c-26.46,0 -48.11,-21.65 -48.11,-48.11l0 -76.98c0,-26.46 21.65,-48.11 48.11,-48.11z"/>
     <path class="fil2" d="M1964.01 3528.81l86.6 0c26.46,0 48.11,21.65 48.11,48.11l0 76.99c0,26.46 -21.65,48.11 -48.11,48.11l-86.6 0c-26.47,0 -48.11,-21.65 -48.11,-48.11l0 -76.99c0,-26.46 21.64,-48.11 48.11,-48.11z"/>
     <path class="fil2" d="M1964.01 3734.24l86.6 0c26.46,0 48.11,21.65 48.11,48.11l0 76.98c0,26.46 -21.65,48.11 -48.11,48.11l-86.6 0c-26.47,0 -48.11,-21.65 -48.11,-48.11l0 -76.98c0,-26.46 21.64,-48.11 48.11,-48.11z"/>
     <path class="fil2" d="M1964.01 3939.66l86.6 0c26.46,0 48.11,21.65 48.11,48.11l0 76.98c0,26.46 -21.65,48.11 -48.11,48.11l-86.6 0c-26.47,0 -48.11,-21.65 -48.11,-48.11l0 -76.98c0,-26.46 21.64,-48.11 48.11,-48.11z"/>
     <path class="fil2" d="M2203.21 3528.81l86.6 0c26.46,0 48.11,21.65 48.11,48.11l0 76.99c0,26.46 -21.65,48.11 -48.11,48.11l-86.6 0c-26.46,0 -48.11,-21.65 -48.11,-48.11l0 -76.99c0,-26.46 21.65,-48.11 48.11,-48.11z"/>
     <path class="fil2" d="M2203.21 3734.24l86.6 0c26.46,0 48.11,21.65 48.11,48.11l0 76.98c0,26.46 -21.65,48.11 -48.11,48.11l-86.6 0c-26.46,0 -48.11,-21.65 -48.11,-48.11l0 -76.98c0,-26.46 21.65,-48.11 48.11,-48.11z"/>
     <path class="fil2" d="M2203.21 3939.66l86.6 0c26.46,0 48.11,21.65 48.11,48.11l0 76.98c0,26.46 -21.65,48.11 -48.11,48.11l-86.6 0c-26.46,0 -48.11,-21.65 -48.11,-48.11l0 -76.98c0,-26.46 21.65,-48.11 48.11,-48.11z"/>
     <path class="fil2" d="M2442.41 3528.81l86.6 0c26.46,0 48.11,21.65 48.11,48.11l0 76.99c0,26.46 -21.65,48.11 -48.11,48.11l-86.6 0c-26.46,0 -48.11,-21.65 -48.11,-48.11l0 -76.99c0,-26.46 21.65,-48.11 48.11,-48.11z"/>
     <path class="fil2" d="M2442.41 3734.24l86.6 0c26.46,0 48.11,21.65 48.11,48.11l0 76.98c0,26.46 -21.65,48.11 -48.11,48.11l-86.6 0c-26.46,0 -48.11,-21.65 -48.11,-48.11l0 -76.98c0,-26.46 21.65,-48.11 48.11,-48.11z"/>
     <path class="fil2" d="M2442.41 3939.66l86.6 0c26.46,0 48.11,21.65 48.11,48.11l0 76.98c0,26.46 -21.65,48.11 -48.11,48.11l-86.6 0c-26.46,0 -48.11,-21.65 -48.11,-48.11l0 -76.98c0,-26.46 21.65,-48.11 48.11,-48.11z"/>
     <path class="fil1" d="M3412.01 3593.25l-47.43 22.65c-104.99,42.22 -263.41,42.74 -368.35,0.8 -19.17,-7.67 -33.03,-16.24 -49.29,-23.97 0.51,36 -0.59,72.27 0.02,108.22 0.46,27.34 31.33,45.38 52.46,55.76 147.36,72.37 409.42,22.67 412.39,-54.32 1.4,-35.89 -1.31,-73.2 0.2,-109.14zm-541.94 219.14c255.34,0 497.81,0 744.17,0 -1.8,-32.8 0.4,-69.42 -0.07,-102.87 7.79,2.88 15.64,8.73 23.75,12.68 81.24,39.48 193.16,47.65 284.9,32.49 0.01,-20.14 0.03,-40.31 0.06,-60.48 -86.61,16.22 -191.87,7.95 -259.33,-25 -20.17,-9.85 -49.02,-27.15 -49.38,-52.67 -0.48,-33.76 0.07,-67.99 0.07,-101.79 42.91,19.64 41.69,24.76 97.29,38.23 63.69,15.43 141.08,18.12 211.61,6.34 0.05,-20.08 0.1,-40.18 0.17,-60.28 -14.45,2.87 -27.4,4.92 -35.65,5.78 -47.45,4.93 -97.86,3.6 -143.9,-5.14 -41.99,-7.97 -82.9,-21.9 -110.28,-44.27 -19.34,-15.78 -18.83,-25.79 -18.83,-58.64 0,-21.77 -2.05,-56.57 0.49,-76.79 14.27,7.44 27.39,15.89 44.83,22.57 74.94,28.7 175.9,37.09 263.81,22.46 0.09,-20.4 0.18,-40.82 0.26,-61.24 -82.21,15.34 -186.99,11.43 -260.9,-25.02 -20.31,-10.03 -48.1,-26.63 -48.52,-53.13 -0.36,-22.38 -2.62,-82.42 0.73,-101.06 70.66,48.66 201.73,62.19 309.32,44.51 0.1,-19.88 0.2,-39.78 0.3,-59.67 -29.63,5.62 -60.9,8.17 -91.97,8.21 -60.93,0.1 -121.2,-9.96 -169.46,-33.27 -19.78,-9.54 -48.5,-26.65 -48.93,-52.68 -0.56,-33.46 -0.32,-68.25 0.1,-101.76 16.17,7.47 17.84,11.82 45.63,22.82 16.76,6.62 33.44,11.75 52.1,16.16 63.56,15.03 142.22,17.59 213.24,5.56l0.33 -59.36c-186.39,36.94 -424.94,-58.23 -248.75,-130.17 37.93,-15.49 79.74,-22.83 125.04,-26.11 41.38,-3 85.29,0.37 124.52,8.2 3.32,-615.47 5.95,-1234.69 -4.84,-1840.1 -2.03,-113.77 -66.27,-146.2 -170.99,-150.81l-1652.38 -4.45 0 599.49c1.63,86.11 -42.85,73.98 -116.99,73.98 -137.2,0 -332.29,4.46 -469.48,4.46l-55.87 70.98 1232.71 0c99.59,0 181.09,68.47 181.09,152.16l0 2139.68zm454.26 -389.29c-6.86,1.51 -12.7,3.1 -19.22,4.56l-18.03 5.01c-15.59,-1.71 -141.6,28.08 -270.29,-15.31 -29.31,-9.88 -45.27,-19.32 -68.87,-31.39 -3.01,28.79 -0.68,76.76 -0.42,107.38 0.24,27.69 30.43,45.83 51.42,56.22 149.06,73.7 412.42,22.34 413.4,-54.62 0.48,-36.14 -0.35,-72.48 0,-108.65l-42.31 20.95c-14.83,6.24 -33.62,11.12 -45.68,15.85zm-182.46 -218.69c-53.26,5.49 -85.42,10.34 -131.04,28.74 -33.77,13.61 -86.56,45.84 -49.97,84.09 23.23,24.28 74.81,42.02 109.44,49.83 46.8,10.56 97.65,13.57 147.46,10.01 46.31,-3.32 91.46,-12.53 130.36,-28.69 81.43,-33.81 86,-77.51 3.34,-114.35 -18.14,-8.09 -39.84,-14.77 -60.93,-19.58 -42.92,-9.77 -102.95,-14.75 -148.66,-10.05z"/>
     <path class="fil1" d="M2026.92 785.49l-472.35 599.94c122.6,0 245.2,0 367.8,0 66.25,0 106,10.79 104.55,-65.82l0 -534.12z"/>
    </g>
   </g>
  </g>
  <path class="fil3" d="M2493.87 6.13c1380.71,0 2500,1119.29 2500,2500 0,1380.71 -1119.29,2500 -2500,2500 -1380.71,0 -2500,-1119.29 -2500,-2500 0,-1380.71 1119.29,-2500 2500,-2500z"/>
 </g>
</symbol>
</svg>
