<svg xmlns="http://www.w3.org/2000/svg" style="display:none">
    <symbol id="Excel-dark-icon" viewBox="0 0 5000 5000">
 <defs>
  <style type="text/css">
   <![CDATA[
    .str0 {stroke:#373435;stroke-width:5.1;stroke-miterlimit:22.9256}
    .fil5 {fill:none}
    .fil1 {fill:#FEFEFE}
    .fil6 {fill:#606062}
    .fil4 {fill:#373435}
    .fil0 {fill:black}
    .fil2 {fill:#139F5B}
    .fil3 {fill:#149F5C}
   ]]>
  </style>
   <clipPath id="id0">
    <path d="M2493.87 6.13c1380.71,0 2500,1119.29 2500,2500 0,1380.71 -1119.29,2500 -2500,2500 -1380.71,0 -2500,-1119.29 -2500,-2500 0,-1380.71 1119.29,-2500 2500,-2500z"/>
   </clipPath>
     <clipPath id="id1">
      <path d="M4074.45 1693.09c-143.86,-11.07 -448.72,37.7 -534.97,-44.85 -84.36,-80.73 -24.59,-392.43 -46.82,-533.74 -249.16,7.4 -512.03,1.76 -762.39,0.5 -145.5,-0.71 -198.45,42.44 -198.49,189.69l0.16 1538.57c0,461.58 -66.98,388.52 765.82,388.52 129.09,0 258.19,0 387.28,0 111.56,0 275.76,25.25 347.49,-41.58 69.76,-65.01 43.28,-231.9 43.25,-337.94 -0.13,-342.37 13.68,-854.83 -1.33,-1159.17z"/>
     </clipPath>
     <clipPath id="id2">
      <path d="M2493.87 6.13c1380.71,0 2500,1119.29 2500,2500 0,1380.71 -1119.29,2500 -2500,2500 -1380.71,0 -2500,-1119.29 -2500,-2500 0,-1380.71 1119.29,-2500 2500,-2500z"/>
     </clipPath>
      <clipPath id="id3">
       <path d="M873.8 1743.43l-0.86 1716.3 1272.73 219.26 2.04 -199.53 907.42 -0.49 0.16 -1726.76 -906.57 -1.97 -1.26 -225.21 -1273.66 218.4z"/>
      </clipPath>
      <clipPath id="id4">
       <path d="M2493.87 6.13c1380.71,0 2500,1119.29 2500,2500 0,1380.71 -1119.29,2500 -2500,2500 -1380.71,0 -2500,-1119.29 -2500,-2500 0,-1380.71 1119.29,-2500 2500,-2500z"/>
      </clipPath>
 </defs>
 <g id="Camada_x0020_1">
  <metadata id="CorelCorpID_0Corel-Layer"/>
  <path class="fil0" d="M2493.87 6.13c1380.71,0 2500,1119.29 2500,2500 0,1380.71 -1119.29,2500 -2500,2500 -1380.71,0 -2500,-1119.29 -2500,-2500 0,-1380.71 1119.29,-2500 2500,-2500z"/>
  <g style="clip-path:url(#id0)">
   <g id="_2525735663248">
    <g>
     <path id="_1" class="fil1" d="M4074.45 1693.09c-143.86,-11.07 -448.72,37.7 -534.97,-44.85 -84.36,-80.73 -24.59,-392.43 -46.82,-533.74 -249.16,7.4 -512.03,1.76 -762.39,0.5 -145.5,-0.71 -198.45,42.44 -198.49,189.69l0.16 1538.57c0,461.58 -66.98,388.52 765.82,388.52 129.09,0 258.19,0 387.28,0 111.56,0 275.76,25.25 347.49,-41.58 69.76,-65.01 43.28,-231.9 43.25,-337.94 -0.13,-342.37 13.68,-854.83 -1.33,-1159.17z"/>
    </g>
    <g style="clip-path:url(#id1)">
     <g>
      <g>
       <g>
        <polygon id="_2" class="fil2" points="3352.01,2556.05 3591.82,2556.59 3592.9,2519.38 3592.72,2474.39 3592.03,2440.92 3550,2436.06 3396.26,2436.9 3351.78,2437.91 "/>
        <polygon class="fil3" points="3351.8,2363.56 3590.7,2364.37 3591.75,2246.86 3356.06,2244.93 "/>
        <rect class="fil1" x="3012.98" y="2244.73" width="239.74" height="120.18"/>
        <rect class="fil1" x="3012.98" y="2437.02" width="239.74" height="120.18"/>
        <rect class="fil1" x="3012.98" y="2629.31" width="239.74" height="120.18"/>
        <rect class="fil1" x="3352.47" y="2244.73" width="239.74" height="120.18"/>
        <rect class="fil1" x="3352.47" y="2437.02" width="239.74" height="120.18"/>
        <rect class="fil1" x="3352.47" y="2629.31" width="239.74" height="120.18"/>
       </g>
       <path class="fil4 str0" d="M3352.47 2629.31l239.74 0 0 120.18 -239.74 0 0 -120.18zm-339.49 0l239.73 0 0 120.18 -239.73 0 0 -120.18zm-48.48 -481.77l-47.23 1.25 0.67 696.91 770.06 1.13 1.6 -48.55 -0.29 -611.79 0.17 -39.54 -40.47 0.7 -684.51 -0.11zm288.21 409.66l-239.73 0 0 -120.18 239.73 0 0 120.18zm99.3 -1.15l-0.23 -118.14 0.69 -0.01 0 -0.88 38.54 0 5.25 -0.12 153.74 -0.84 8.3 0.96 33.91 0 0 12.61 0.51 24.76 0.18 44.99 -0.69 23.75 0 14.07 -239.74 0 0 -1.15 -0.46 0zm0.46 -211.22l0 -100.1 239.74 0 0 120.18 -239.74 0 0 -1.35 -0.67 0 0.67 -18.73zm-99.76 20.08l-239.73 0 0 -120.18 239.73 0 0 120.18z"/>
      </g>
     </g>
    </g>
    <g style="clip-path:url(#id2)">
     <path class="fil5" d="M4074.45 1693.09c-143.86,-11.07 -448.72,37.7 -534.97,-44.85 -84.36,-80.73 -24.59,-392.43 -46.82,-533.74 -249.16,7.4 -512.03,1.76 -762.39,0.5 -145.5,-0.71 -198.45,42.44 -198.49,189.69l0.16 1538.57c0,461.58 -66.98,388.52 765.82,388.52 129.09,0 258.19,0 387.28,0 111.56,0 275.76,25.25 347.49,-41.58 69.76,-65.01 43.28,-231.9 43.25,-337.94 -0.13,-342.37 13.68,-854.83 -1.33,-1159.17z"/>
     <path class="fil6" d="M4074.47 1693.09c-1.5,-1.91 -3.94,-7.12 -4.71,-5.56l-68.09 -69.23c-26.21,-26.19 -45.84,-45.8 -72.06,-71.98l-424.88 -422.89c-1.61,-1.3 -4.61,-3.4 -5.96,-4.45 -1.37,-1.07 -4,-3.08 -6.11,-4.46 22.21,141.29 -37.54,452.98 46.81,533.71 86.27,82.56 391.13,33.81 535,44.86z"/>
     <g>
      <polygon class="fil1" points="873.8,1743.43 872.94,3459.73 2145.67,3678.99 2147.71,3479.46 3055.13,3478.97 3055.29,1752.21 2148.72,1750.24 2147.46,1525.03 "/>
     </g>
     <g style="clip-path:url(#id3)">
      <g>
       <rect class="fil4" x="2149.14" y="1877.58" width="780.45" height="1486.89"/>
       <rect class="fil1" x="2100.69" y="2030.29" width="202.68" height="153.72"/>
       <rect class="fil1" x="2100.69" y="2289.93" width="202.68" height="153.72"/>
       <rect class="fil1" x="2100.69" y="2546.05" width="202.68" height="153.72"/>
       <rect class="fil1" x="2100.69" y="2800.91" width="202.68" height="153.72"/>
       <rect class="fil1" x="2100.69" y="3052.53" width="202.68" height="153.72"/>
       <rect class="fil1" x="2414.27" y="2031.5" width="360.15" height="151.3"/>
       <rect class="fil1" x="2414.27" y="2291.14" width="360.15" height="151.3"/>
       <rect class="fil1" x="2414.27" y="2547.25" width="360.15" height="151.3"/>
       <rect class="fil1" x="2414.27" y="2802.11" width="360.15" height="151.3"/>
       <rect class="fil1" x="2414.27" y="3053.74" width="360.15" height="151.3"/>
      </g>
     </g>
     <g style="clip-path:url(#id4)">
      <polygon class="fil5" points="873.8,1743.43 872.94,3459.73 2145.67,3678.99 2147.71,3479.46 3055.13,3478.97 3055.29,1752.21 2148.72,1750.24 2147.46,1525.03 "/>
      <path class="fil4" d="M1592.22 2189.47c-31.98,89.84 -78.96,177.58 -108.44,273.11 -9.97,-9.27 -78.48,-179.94 -86.59,-198.57 -8.59,-19.71 -18.09,-46.51 -28.77,-64.96l-167.68 4.9c6.03,26.74 32.38,71.74 43.11,94.78 20.34,43.65 134.74,265.47 134.27,278.3 -0.22,6.01 -81.18,162.58 -91.82,182.71 -16.66,31.48 -30.92,59.28 -47.61,91.17 -9.75,18.63 -43.4,77.93 -44.03,93.28l165.68 18.15 110.84 -263.1c10.41,10.44 90.71,199.02 98.95,218.2 8.09,18.81 23.74,58.51 33.62,72.41l196.23 21.94c-2.57,-17.89 -189.89,-371.15 -214.44,-414.97 -14.23,-25.39 12.94,-58.67 37.8,-104.36 22.43,-41.22 161.71,-289.01 165.31,-311.35l-196.43 8.36z"/>
     </g>
    </g>
   </g>
  </g>
  <path class="fil5" d="M2493.87 6.13c1380.71,0 2500,1119.29 2500,2500 0,1380.71 -1119.29,2500 -2500,2500 -1380.71,0 -2500,-1119.29 -2500,-2500 0,-1380.71 1119.29,-2500 2500,-2500z"/>
 </g>
 </symbol>
</svg>
