<?xml version="1.0" encoding="UTF-8"?>
<!DOCTYPE svg PUBLIC "-//W3C//DTD SVG 1.1//EN" "http://www.w3.org/Graphics/SVG/1.1/DTD/svg11.dtd">
<!-- Creator: CorelDRAW -->
<svg xmlns="http://www.w3.org/2000/svg" xml:space="preserve" width="50mm" height="50mm" version="1.1" style="shape-rendering:geometricPrecision; text-rendering:geometricPrecision; image-rendering:optimizeQuality; fill-rule:evenodd; clip-rule:evenodd"
viewBox="0 0 5000 5000"
 xmlns:xlink="http://www.w3.org/1999/xlink"
 xmlns:xodm="http://www.corel.com/coreldraw/odm/2003">
 <defs>
  <style type="text/css">
   <![CDATA[
    .fil3 {fill:none}
    .fil1 {fill:#FEFEFE}
    .fil0 {fill:black}
    .fil2 {fill:#080207}
   ]]>
  </style>
   <clipPath id="id0">
    <path d="M2493.87 6.13c1380.71,0 2500,1119.29 2500,2500 0,1380.71 -1119.29,2500 -2500,2500 -1380.71,0 -2500,-1119.29 -2500,-2500 0,-1380.71 1119.29,-2500 2500,-2500z"/>
   </clipPath>
 </defs>
 <g id="Camada_x0020_1">
  <metadata id="CorelCorpID_0Corel-Layer"/>
  <path class="fil0" d="M2493.87 6.13c1380.71,0 2500,1119.29 2500,2500 0,1380.71 -1119.29,2500 -2500,2500 -1380.71,0 -2500,-1119.29 -2500,-2500 0,-1380.71 1119.29,-2500 2500,-2500z"/>
  <g style="clip-path:url(#id0)">
   <g id="_2489801661520">
    <path id="_1" class="fil1" d="M1214.26 1321.17l1537.29 -476.96c155.03,-48.1 321.22,39.38 369.32,194.41l688.96 2220.6c48.1,155.03 -39.38,321.22 -194.41,369.32l-1537.29 476.96 -863.87 -2784.33z"/>
    <polygon class="fil1" points="1214.26,1321.17 1164.7,1380.5 1209.1,1366.72 1227.27,1361.02 1220,1339.67 "/>
    <path class="fil2" d="M1217.65 1330.7l-36.03 46.14 45.45 -15.76 859.54 2770.37 1509.88 -468.45c152.27,-47.25 238.03,-211.01 190.59,-363.92l-696.45 -2244.71c-47.44,-152.91 -210.83,-239.37 -363.1,-192.13l-1509.88 468.46z"/>
    <path class="fil1" d="M1164.7 1380.5l1516.33 -470.46c152.91,-47.44 316.83,38.85 364.27,191.76l696.45 2244.72c47.44,152.91 -38.85,316.83 -191.76,364.27l-1516.33 470.46 -868.96 -2800.75z"/>
    <line class="fil3" x1="1234.56" y1="1296.86" x2="1164.7" y2= "1380.5" />
   </g>
  </g>
  <path class="fil3" d="M2493.87 6.13c1380.71,0 2500,1119.29 2500,2500 0,1380.71 -1119.29,2500 -2500,2500 -1380.71,0 -2500,-1119.29 -2500,-2500 0,-1380.71 1119.29,-2500 2500,-2500z"/>
 </g>
</svg>
