<?xml version="1.0" encoding="UTF-8"?>
<!DOCTYPE svg PUBLIC "-//W3C//DTD SVG 1.1//EN" "http://www.w3.org/Graphics/SVG/1.1/DTD/svg11.dtd">
<!-- Creator: CorelDRAW -->
<svg xmlns="http://www.w3.org/2000/svg" xml:space="preserve" width="51.724mm" height="78.5634mm" version="1.1" style="shape-rendering:geometricPrecision; text-rendering:geometricPrecision; image-rendering:optimizeQuality; fill-rule:evenodd; clip-rule:evenodd"
viewBox="0 0 5172.4 7856.34"
 xmlns:xlink="http://www.w3.org/1999/xlink"
 xmlns:xodm="http://www.corel.com/coreldraw/odm/2003">
 <defs>
  <style type="text/css">
   <![CDATA[
    .fil3 {fill:none}
    .fil2 {fill:black}
    .fil0 {fill:#080207}
    .fil1 {fill:#CFCCBF}
    .fil4 {fill:#FEFEFE;fill-rule:nonzero}
   ]]>
  </style>
 </defs>
 <g id="Camada_x0020_1">
  <metadata id="CorelCorpID_0Corel-Layer"/>
  <path class="fil0" d="M165.88 45.52l4226.91 0c426.27,0 775.02,348.76 775.02,775.02l0 6105.74c0,426.27 -348.75,775.02 -775.02,775.02l-4226.91 0 0 -7655.78z"/>
  <polygon class="fil0" points="165.86,45.52 -4.6,155.76 117.47,155.76 167.48,155.6 165.86,96.38 "/>
  <path class="fil1" d="M166.94 72.06l-126.26 87.7 126.26 -4.16 0 7617.4 4151.57 0c418.67,0 761.22,-344 761.22,-764.46l0 -6172.02c0,-420.46 -342.55,-764.46 -761.22,-764.46l-4151.57 0z"/>
  <path class="fil2" d="M-4.6 155.76l4169.27 0c420.45,0 764.45,344 764.45,764.44l0 6172.06c0,420.44 -344,764.44 -764.45,764.44l-4169.27 0 0 -7700.94z"/>
  <line class="fil3" x1="235.69" y1="0.36" x2="-4.6" y2= "155.76" />
  <path class="fil4" d="M685.05 2666.11c-74.68,0 -128.43,-26.76 -161.41,-80.49 -32.98,-53.51 -49.48,-138.79 -49.48,-255.87l0 -115.24 161.73 0 0 147.48c0,27.21 2.86,48.48 8.56,64.03 5.71,15.32 15.7,23.09 29.97,23.09 14.75,0 25.06,-6.4 30.92,-18.75 5.71,-12.57 8.56,-33.15 8.56,-61.74 0,-36.12 -2.53,-66.31 -7.45,-90.77 -4.91,-24.24 -13.64,-47.56 -25.84,-69.74 -12.21,-21.95 -29.18,-47.79 -50.9,-77.29l-73.25 -100.38c-54.87,-74.77 -82.3,-160.06 -82.3,-256.09 0,-100.38 16.18,-176.98 48.52,-229.58 32.35,-52.82 79.28,-79.11 140.48,-79.11 75,0 128.28,28.81 159.67,86.43 31.39,57.62 47.09,145.2 47.09,262.5l-166.32 0 0 -80.95c0,-16.23 -3.17,-28.58 -9.52,-37.49 -6.33,-8.92 -14.9,-13.5 -25.68,-13.5 -13,0 -22.52,5.26 -28.54,15.78 -6.19,10.52 -9.2,24.01 -9.2,40.47 0,16.47 3.17,34.53 9.36,53.74 6.18,19.21 18.39,41.16 36.62,66.31l94.34 130.56c18.87,25.84 36.31,53.28 52.01,82.09 15.86,28.81 28.54,62.19 38.22,100.38 9.51,38.19 14.26,84.83 14.26,139.71 0,110.67 -14.11,197.56 -42.49,260.21 -28.23,62.88 -77.54,94.21 -147.93,94.21z"/>
  <path id="_1" class="fil4" d="M1136.62 2666.11c-78.02,0 -133.35,-28.81 -166.01,-86.44 -32.66,-57.62 -49,-142.22 -49,-253.8l0 -309.61c0,-83.91 6.19,-153.88 18.56,-209.67 12.36,-55.8 34.09,-97.64 65.01,-125.31 30.91,-27.66 74.04,-41.38 129.22,-41.38 38.37,0 72.77,9.83 103.22,29.26 30.6,19.67 54.7,48.48 72.3,86.44 17.6,37.95 26.48,84.6 26.48,139.48l0 153.43 -169.5 0 0 -140.86c0,-23.09 -2.37,-42.76 -6.98,-58.53 -4.76,-15.78 -14.74,-23.78 -30.28,-23.78 -27.27,0 -40.91,27.89 -40.91,83.68l0 487.04c0,20.58 3.17,39.56 9.36,56.71 6.18,17.15 16.49,25.84 30.6,25.84 14.59,0 24.73,-8.46 30.44,-25.15 5.71,-16.92 8.72,-36.36 8.72,-58.77l0 -168.75 168.55 0 0 175.61c0,55.34 -8.56,102.67 -25.85,142.23 -17.12,39.55 -40.75,69.74 -70.71,90.77 -30.13,21.04 -64.54,31.56 -103.22,31.56z"/>
  <path id="_2" class="fil4" d="M1394.43 2655.36l0 -1178.95 170.92 0 0 273.93c9.04,-37.5 22.84,-65.4 41.39,-83.46 18.55,-18.07 40.27,-26.98 65.01,-26.98 48.36,0 83.4,21.72 105.43,65.62 22.05,43.67 32.98,102.44 32.98,176.07l0 773.77 -168.22 0 0 -758.23c0,-21.95 -3.17,-39.78 -9.52,-53.73 -6.34,-13.72 -16.33,-20.81 -29.97,-20.81 -11.41,0 -20.45,7.32 -27.11,21.5 -6.66,14.4 -9.99,31.32 -9.99,50.99l0 760.28 -170.92 0z"/>
  <path id="_3" class="fil4" d="M2070.2 2666.11c-49.47,0 -88.95,-13.49 -118.44,-40.25 -29.33,-26.75 -50.43,-65.39 -63.11,-115.93 -12.68,-50.3 -19.03,-111.12 -19.03,-182.24l0 -403.8c0,-93.29 18.56,-163.95 55.66,-211.97 37.26,-48.02 88.31,-72.02 153.32,-72.02 133.83,0 200.74,94.66 200.74,283.99l0 72.94c0,88.49 -0.63,147.94 -1.9,178.12l-241.49 0 0 194.36c0,17.84 0.8,35.44 2.23,52.59 1.58,17.15 5.06,31.33 10.46,42.53 5.39,11.21 14.27,16.69 26.32,16.69 17.28,0 28.07,-10.74 32.5,-32.47 4.28,-21.72 6.5,-49.84 6.5,-84.6l0 -96.49 165.38 0 0 56.93c0,75 -6.5,137.88 -19.34,188.42 -12.85,50.76 -34.57,88.94 -65.01,114.55 -30.45,25.84 -72.15,38.65 -124.79,38.65zm-35.2 -610.29l78.96 0 0 -135.36c0,-36.13 -3.17,-62.2 -9.35,-77.97 -6.18,-16.01 -15.38,-23.78 -27.91,-23.78 -13.32,0 -23.46,7.54 -30.76,22.63 -7.29,15.32 -10.94,41.62 -10.94,79.12l0 135.36z"/>
  <path id="_4" class="fil4" d="M2476.74 2666.11c-32.19,0 -57.72,-8.46 -76.59,-25.38 -18.87,-17.15 -32.98,-40.48 -42.33,-70.43 -9.2,-29.95 -15.38,-64.94 -18.39,-105.18 -2.86,-40.25 -4.28,-83.23 -4.28,-129.19l0 -436.97c0,-77.28 9.51,-139.71 28.53,-187.49 19.03,-47.79 51.38,-71.57 96.88,-71.57 33.78,0 59.62,10.29 77.7,31.09 18.23,20.81 32.18,49.62 42.18,86.66l0 -281.24 169.02 0 0 1178.95 -169.02 0 0 -106.55c-9.36,36.12 -21.73,64.71 -36.95,85.74 -15.38,21.04 -37.58,31.56 -66.75,31.56zm63.74 -187.5c15.69,0 26.32,-9.15 31.71,-27.67 5.39,-18.29 8.25,-50.99 8.25,-98.32l0 -422.79c0,-23.55 -2.54,-46.87 -7.3,-69.97 -4.76,-23.09 -15.38,-34.52 -31.87,-34.52 -17.92,0 -29.17,10.97 -33.77,32.92 -4.76,21.73 -6.98,45.73 -6.98,71.57l0 422.79c0,83.92 13.32,125.99 39.96,125.99z"/>
  <path id="_5" class="fil4" d="M2947.81 2666.11c-37.26,0 -65.64,-11.21 -85.3,-33.62 -19.66,-22.18 -32.98,-53.5 -40.12,-93.29 -7.13,-40.01 -10.78,-86.89 -10.78,-140.39l0 -748.4 167.28 0 0 720.27c0,40.25 2.22,68.14 6.5,84.15 4.28,15.78 14.59,23.78 30.6,23.78 17.44,0 28.38,-11.21 32.82,-33.61 4.45,-22.41 6.67,-51.22 6.67,-86.44l0 -708.15 165.84 0 0 1004.95 -166.32 0 0 -107.24c-10.47,38.41 -23.15,67.68 -37.74,87.8 -14.74,20.13 -37.89,30.19 -69.45,30.19z"/>
  <polygon id="_6" class="fil4" points="3288.24,2655.36 3288.24,1476.41 3457.26,1476.41 3457.26,2655.36 "/>
  <path id="_7" class="fil4" d="M3719.19 2666.11c-49.47,0 -88.95,-13.49 -118.44,-40.25 -29.33,-26.75 -50.42,-65.39 -63.11,-115.93 -12.68,-50.3 -19.02,-111.12 -19.02,-182.24l0 -403.8c0,-93.29 18.55,-163.95 55.65,-211.97 37.27,-48.02 88.32,-72.02 153.33,-72.02 133.82,0 200.73,94.66 200.73,283.99l0 72.94c0,88.49 -0.63,147.94 -1.9,178.12l-241.49 0 0 194.36c0,17.84 0.8,35.44 2.23,52.59 1.58,17.15 5.07,31.33 10.46,42.53 5.39,11.21 14.27,16.69 26.32,16.69 17.28,0 28.07,-10.74 32.51,-32.47 4.27,-21.72 6.49,-49.84 6.49,-84.6l0 -96.49 165.38 0 0 56.93c0,75 -6.5,137.88 -19.34,188.42 -12.84,50.76 -34.57,88.94 -65.01,114.55 -30.45,25.84 -72.14,38.65 -124.79,38.65zm-35.2 -610.29l78.96 0 0 -135.36c0,-36.13 -3.17,-62.2 -9.35,-77.97 -6.18,-16.01 -15.38,-23.78 -27.9,-23.78 -13.33,0 -23.47,7.54 -30.77,22.63 -7.29,15.32 -10.94,41.62 -10.94,79.12l0 135.36z"/>
  <path id="_8" class="fil4" d="M4125.73 2666.11c-32.19,0 -57.72,-8.46 -76.59,-25.38 -18.86,-17.15 -32.97,-40.48 -42.33,-70.43 -9.19,-29.95 -15.38,-64.94 -18.39,-105.18 -2.86,-40.25 -4.28,-83.23 -4.28,-129.19l0 -436.97c0,-77.28 9.51,-139.71 28.54,-187.49 19.02,-47.79 51.37,-71.57 96.88,-71.57 33.77,0 59.62,10.29 77.69,31.09 18.23,20.81 32.19,49.62 42.18,86.66l0 -281.24 169.02 0 0 1178.95 -169.02 0 0 -106.55c-9.36,36.12 -21.73,64.71 -36.95,85.74 -15.38,21.04 -37.57,31.56 -66.75,31.56zm63.74 -187.5c15.7,0 26.32,-9.15 31.71,-27.67 5.39,-18.29 8.25,-50.99 8.25,-98.32l0 -422.79c0,-23.55 -2.54,-46.87 -7.3,-69.97 -4.75,-23.09 -15.38,-34.52 -31.87,-34.52 -17.91,0 -29.17,10.97 -33.77,32.92 -4.75,21.73 -6.98,45.73 -6.98,71.57l0 422.79c0,83.92 13.32,125.99 39.96,125.99z"/>
 </g>
</svg>
