
<svg xmlns="http://www.w3.org/2000/svg" style="display:none" >
 <symbol viewBox="0 0 5000 5000" id="terminal-icon">
  <defs>
  <style type="text/css">
   <![CDATA[
    .fil2 {fill:none}
    .fil1 {fill:#FEFEFE}
    .fil0 {fill:black}
   ]]>
  </style>
   <clipPath id="id0">
    <path d="M2493.87 6.13c1380.72,0 2500,1119.29 2500,2500 0,1380.72 -1119.28,2500 -2500,2500 -1380.71,0 -2500,-1119.28 -2500,-2500 0,-1380.71 1119.29,-2500 2500,-2500z"/>
   </clipPath>
 </defs>
 <g id="Camada_x0020_1">
  <metadata id="CorelCorpID_0Corel-Layer"/>
  <path class="fil0" d="M2493.87 6.13c1380.72,0 2500,1119.29 2500,2500 0,1380.72 -1119.28,2500 -2500,2500 -1380.71,0 -2500,-1119.28 -2500,-2500 0,-1380.71 1119.29,-2500 2500,-2500z"/>
  <g style="clip-path:url(#id0)">
   <g id="_2525736241536">
    <g>
     <path id="_1" class="fil1" d="M3187.1 1926.93c0,60.59 78.53,120.44 119.97,161.87l274.23 274.24c36.26,36.25 114.73,106.55 139.02,142.83 -71.13,106.22 -533.22,490.31 -533.22,571.31 0,64.85 80.28,122.18 123.78,165.68 193.44,193.44 153.45,177.92 396.11,-64.75l540.85 -540.84c70.52,-70.52 97.12,-71.63 97.12,-154.26 0,-33.7 -255.08,-273.55 -310.38,-329.49l-430.42 -422.74c-130.62,-130.61 -121.23,-133.96 -289.47,34.28 -33.88,33.88 -127.59,107.62 -127.59,161.87z"/>
     <path class="fil1" d="M642.84 2483.01c0,81.92 24.22,81.35 93.31,150.45l540.85 540.84c37.41,37.41 69.24,69.24 106.64,106.65 130.62,130.61 121.23,133.96 289.47,-34.28 201.97,-201.97 197.37,-134 -266.61,-597.98 -36.26,-36.25 -114.73,-106.55 -139.02,-142.82 71.13,-106.23 533.22,-490.32 533.22,-571.32 0,-64.85 -80.27,-122.18 -123.78,-165.68 -166.98,-166.98 -160.3,-171.07 -285.66,-45.71l-540.84 533.23c-32.59,32.59 -207.58,192.52 -207.58,226.62z"/>
     <path class="fil1" d="M1983.52 3381.88c0,53.33 43.95,83.79 99.03,83.79 323.42,0 290.69,32.44 362.74,-185.72l481.84 -1399.69c14.26,-42.81 27.23,-75.72 42,-117.97 86.16,-246.39 13.86,-216.23 -300.03,-216.23 -84.62,0 -103.14,115.15 -126.62,185.69l-401.86 1174.97c-27.33,81.95 -54.24,155.2 -79.95,232.37 -12.8,38.44 -77.15,215.74 -77.15,242.79z"/>
    </g>
   </g>
  </g>
  <path class="fil2" d="M2493.87 6.13c1380.72,0 2500,1119.29 2500,2500 0,1380.72 -1119.28,2500 -2500,2500 -1380.71,0 -2500,-1119.28 -2500,-2500 0,-1380.71 1119.29,-2500 2500,-2500z"/>
 </g>
 </symbol>
</svg>
